<svg width="62" height="19" xmlns="http://www.w3.org/2000/svg"><g fill-rule="nonzero" fill="none"><path fill="#FFF" d="M21.999 18.595L25.079.403h4.988l-3.08 18.192zM44.743.873C43.755.505 42.206.11 40.272.11c-4.93 0-8.402 2.468-8.432 6.004-.027 2.613 2.48 4.07 4.372 4.942 1.942.89 2.595 1.46 2.585 2.256-.012 1.22-1.551 1.777-2.985 1.777-1.996-.001-3.057-.276-4.696-.955l-.642-.29-.7 4.072c1.165.508 3.32.949 5.557.971 5.242 0 8.647-2.438 8.685-6.215.02-2.07-1.31-3.644-4.188-4.943-1.744-.84-2.812-1.402-2.8-2.255 0-.756.905-1.564 2.857-1.564a9.249 9.249 0 0 1 3.734.697l.446.21.678-3.944zM53.247.403c-1.195 0-2.058.365-2.584 1.55l-7.392 16.643h5.281l1.027-2.788h6.31l.586 2.788h4.694L57.062.404h-3.815zM50.98 12.168c.412-1.048 1.987-5.085 1.987-5.085-.029.048.41-1.052.661-1.735l.338 1.567 1.154 5.253h-4.14zM12.903 12.873l-.44-2.494c-.91-2.907-3.735-6.052-6.9-7.628l4.406 15.844h5.282L23.173.403h-5.281l-4.989 12.47z"/><path d="M.14.697c6.259 1.505 10.604 5.31 12.324 9.683l-1.809-8.424C10.353.804 9.44.443 8.355.403H.14v.294z" fill="#BAD1E7"/></g></svg>